inDegrees=no
num_controls=7
num_derivatives=13
num_iterations=114
num_multipliers=7
num_parameters=0
num_slacks=7
num_states=26
objective=4.906342
objective_accelerations=0.698543
objective_balance=0.044901
objective_effort=0.672678
objective_height=3.436252
objective_ligament=0.053967
solver_duration=1138.623128
status=Solve_Succeeded
success=true
DataType=double
version=3
OpenSimVersion=4.4-2022-07-23-0e9fedc
endheader
time	/jointset/ground_pelvis/pelvis_tilt/value	/jointset/ground_pelvis/pelvis_tx/value	/jointset/ground_pelvis/pelvis_ty/value	/jointset/hip_l/hip_flexion_l/value	/jointset/hip_l/hip_adduction_l/value	/jointset/hip_l/hip_rotation_l/value	/jointset/back/lumbar_extension/value	/jointset/patellofemoral_l/patellar_flexion_l/value	/jointset/knee_l/knee_flexion_l/value	/jointset/knee_l/knee_adduction_l/value	/jointset/knee_l/knee_rotation_l/value	/jointset/ankle_l/ankle_angle_l/value	/jointset/subtalar_l/subtalar_angle_l/value	/jointset/ground_pelvis/pelvis_tilt/speed	/jointset/ground_pelvis/pelvis_tx/speed	/jointset/ground_pelvis/pelvis_ty/speed	/jointset/hip_l/hip_flexion_l/speed	/jointset/hip_l/hip_adduction_l/speed	/jointset/hip_l/hip_rotation_l/speed	/jointset/back/lumbar_extension/speed	/jointset/patellofemoral_l/patellar_flexion_l/speed	/jointset/knee_l/knee_flexion_l/speed	/jointset/knee_l/knee_adduction_l/speed	/jointset/knee_l/knee_rotation_l/speed	/jointset/ankle_l/ankle_angle_l/speed	/jointset/subtalar_l/subtalar_angle_l/speed	/forceset/tau_hip_flexion_l	/forceset/tau_hip_adduction_l	/forceset/tau_hip_rotation_l	/forceset/tau_knee_flexion_l	/forceset/tau_ankle_angle_l	/forceset/tau_subtalar_angle_l	/forceset/tau_lumbar_extension	lambda_cid13_p0	lambda_cid13_p1	lambda_cid13_p2	lambda_cid13_p3	lambda_cid13_p4	lambda_cid13_p5	lambda_cid14_p0	/jointset/ground_pelvis/pelvis_tilt/accel	/jointset/ground_pelvis/pelvis_tx/accel	/jointset/ground_pelvis/pelvis_ty/accel	/jointset/hip_l/hip_flexion_l/accel	/jointset/hip_l/hip_adduction_l/accel	/jointset/hip_l/hip_rotation_l/accel	/jointset/back/lumbar_extension/accel	/jointset/patellofemoral_l/patellar_flexion_l/accel	/jointset/knee_l/knee_flexion_l/accel	/jointset/knee_l/knee_adduction_l/accel	/jointset/knee_l/knee_rotation_l/accel	/jointset/ankle_l/ankle_angle_l/accel	/jointset/subtalar_l/subtalar_angle_l/accel	gamma_cid13_p0	gamma_cid13_p1	gamma_cid13_p2	gamma_cid13_p3	gamma_cid13_p4	gamma_cid13_p5	gamma_cid14_p0
1	-0.1040077277940684	-0.06713049305637166	0.4219169215665293	2.090015764653196	-0.2969691330846498	0.1218766304392363	-0.9599300286274602	2.093144935523885	2.093144935523877	0.174531781114433	-0.1745325678037793	0.2552580628503014	0.0942982736343063	0.03346431609096739	0.003253704440160946	0.06755867073022613	-0.2565497174173085	-0.01997874875986999	-0.05565686111413277	3.975785613098915e-05	-0.1292402455235682	-0.1292402455235442	-0.004810554230741187	7.784541387864698e-05	0.0892924184183579	0.01681157183727048	-0.3838531826190497	-0.03860287280458483	-0.06254272390193713	-0.427509220153036	0.09875709979465029	-0.001279574513391024	0.4379615161700527	-25.1356691293559	14.41253638595394	-13.55279340119985	24.13136860541782	-849.1976758300356	-27.54975357806594	-0.02270663139076429	-0.6998648287390365	-0.5972533179899755	2.504708872259298	-7.449635683567747	-0.4405629966502427	-1.956612231806238	-0.005689892635310924	-6.72936056375216	-6.729360563752162	-0.9161070361995759	-0.01541337080168172	1.022608570465463	-0.06073020037401954	-5.166438225492789e-09	5.12145524201701e-08	-1.918652765005149e-07	2.552070273240904e-08	-2.891918362639702e-08	-5.311384387972471e-08	1.116857004922583e-08
1.01	-0.1037082078086726	-0.06712786765370886	0.4227182692747333	2.087076357273359	-0.2971893511721749	0.121225570203751	-0.9599297968830848	2.091514579996598	2.091514579996597	0.1744351866274389	-0.1745313733196917	0.2562021118562286	0.09446538675074551	0.026450404893558	-0.002726042384721788	0.09275866361389487	-0.331432017852433	-0.02402803230859196	-0.07448484229421035	9.852363702615496e-06	-0.1969673711847384	-0.1969673711847254	-0.01460064095656246	0.0001605334598287247	0.09946177383399213	0.01663193630879434	-0.3847060233008551	-0.03832828331432761	-0.06252954438077232	-0.4294894145623279	0.09874592780199298	-0.0009918158034157511	0.4390653579495444	-25.24783012187757	14.32187696177713	-13.55510318506525	24.2454307350303	-851.0431787401893	-28.00956231904293	-0.02282784765239472	-0.7005471879005307	-0.5979483231014371	2.534802041355119	-7.522568640090882	-0.3815362716743963	-1.835344300648883	-0.001151677891258155	-6.814868277395597	-6.814868277397239	-1.024286466653786	0.01997829711908445	1.005755099792172	0.006577676655776829	3.094336448814973e-09	3.736032305707159e-08	-2.565946605825338e-07	-6.69924891886678e-10	-5.652405467564541e-08	-1.244045783944499e-07	1.507319797771411e-08
1.02	-0.1034785055197826	-0.06718496231096767	0.4237730484207609	2.083385118605853	-0.2974489471427237	0.1203883395085554	-0.9599297663536054	2.08920285727068	2.089202857270677	0.1742379258781009	-0.1745293782741253	0.2572461856308486	0.09463133509304793	0.01950077678980354	-0.008690307544159477	0.1182449582949368	-0.4069159749517996	-0.02785432536496271	-0.09289095305590274	-4.851425137394837e-07	-0.2655136852497544	-0.2655136852497523	-0.02494380671760526	0.0002379576988032573	0.1092973721568175	0.01657861700992355	-0.3855588639826484	-0.03805369382407446	-0.06251636485945726	-0.4314696089716238	0.09873475580933033	-0.0007040570934499669	0.4401691997290454	-25.34848709438182	14.23182347362721	-13.56050187060377	24.32638220837004	-852.7359943121742	-28.41484369574205	-0.02300511892495905	-0.6870082100080873	-0.5941569849009316	2.561969231733938	-7.569967016416155	-0.3959648981801231	-1.872238148129186	-0.001776295393121447	-6.893198244521314	-6.893198244521276	-1.026722843243958	-0.01646613219699318	0.955857151903755	-0.03546695445307665	1.787510252374771e-08	-1.516175883463885e-09	-3.81573017525559e-07	-3.08399154407722e-08	-9.298485334530266e-08	-3.815481750095896e-07	3.357706338167568e-08
1.03	-0.1033176470435839	-0.0673014643182217	0.4250840600247273	2.07893633784338	-0.297745689616809	0.119369360877271	-0.9599297528008752	2.086201866790042	2.086201866790024	0.173934411664149	-0.1745268214118996	0.2583866231315126	0.0947972310391615	0.0127140435309845	-0.01459180615232491	0.1439992099743307	-0.4829113092226808	-0.0314561161213863	-0.1108622940964146	5.628864906067245e-06	-0.3347924235713461	-0.3347924235713346	-0.03581198931903622	0.0002753622043338364	0.1187025314896491	0.01660844805053763	-0.3864535233048743	-0.03771068930363226	-0.06241501383500955	-0.4336056949688429	0.09899878233975369	-0.0002595564742871317	0.4413773212839174	-25.34383952162498	14.04538387790258	-13.53925488419511	24.16093462897855	-854.4411174704454	-29.0033191284417	-0.02322465023460514	-0.6680361618583951	-0.5854155287456947	2.588404128724905	-7.624986613300697	-0.3364912405752301	-1.753211438590407	0.002170225189118082	-6.961424088990063	-6.961424088988662	-1.124760731803654	0.01401686235353399	0.9197026881510707	0.02345709429836216	3.272239912317665e-08	-4.064800410540192e-08	-5.071661599059417e-07	-6.105051173378621e-08	-1.295360186233315e-07	-6.405882294012653e-07	5.222990059661155e-08
1.04	-0.1032233619555819	-0.06747643515755165	0.4266538643440241	2.073725469742021	-0.2980772910136978	0.1181719429642693	-0.9599296051127835	2.082504846433586	2.082504846433547	0.17352063667163	-0.174523855880517	0.2596184836983405	0.09496367508787712	0.006186099150582781	-0.02038407395934454	0.1700035013610319	-0.5593334427286244	-0.0348261099258807	-0.128578809400055	2.634192751082306e-05	-0.4047196604134161	-0.4047196604133951	-0.0469959624489114	0.0003196915268805588	0.1275819853896098	0.01668823753034037	-0.3873481826270997	-0.03736768478318633	-0.0623136628104213	-0.4357417809660643	0.09926280887017731	0.0001849441448792502	0.4425854428387901	-25.32818153744359	13.85867989005272	-13.51986526808507	23.96560310157204	-855.9983489224088	-29.54531276745866	-0.02349993713443569	-0.6352504343246579	-0.5723108246717423	2.6119771731954	-7.655326863428638	-0.3496055077943578	-1.821273000754874	0.00114351564390229	-7.022897948616915	-7.022897948616915	-1.089880948932854	-0.01508116879388146	0.8507160653296353	-0.02547526661541071	4.895019559922764e-08	-8.598225445599245e-08	-6.366259468216741e-07	-8.973960778065782e-08	-1.644035156747819e-07	-9.34834368940507e-07	7.416631815472467e-08
1.05	-0.1031927423274344	-0.06770863468677091	0.4284848938746264	2.067748560575164	-0.2984413735686288	0.1167992579515417	-0.9599292329489573	2.078105581736677	2.078105581736661	0.172993018602432	-0.174520635332558	0.2609361684854279	0.0951310772380707	1.190112641386166e-05	-0.02602308113992242	0.1962378943106752	-0.636091663614937	-0.03794353837573147	-0.1458945067545923	4.513391110275034e-05	-0.4752159068003475	-0.4752159068003694	-0.05858381098618935	0.0003247861052704902	0.1358351570453998	0.01679609552200284	-0.3882093298513696	-0.03694810489461004	-0.06210344223427989	-0.4380538204561864	0.09983202993704161	0.0007887425629764346	0.4438190860019099	-25.19489764216468	13.57129845717638	-13.47197618342159	23.53312416923012	-857.5158652806183	-30.28617274890654	-0.02381732520145411	-0.5973886248071995	-0.5548070185349894	2.634453593202077	-7.692557343617747	-0.2856570728621346	-1.677159074056614	0.001803500808754143	-7.075401622157909	-7.075401622164333	-1.201577994366062	0.008172197137159458	0.7946418498332001	0.02961471671200556	6.522113269642304e-08	-1.315103304981033e-07	-7.66206566379136e-07	-1.183811569448375e-07	-1.992183980941518e-07	-1.23018069864061e-06	9.620534759856206e-08
